<!-- icon666.com - MILLIONS OF FREE VECTOR ICONS --><svg version="1.1" id="Capa_1" xmlns="http://www.w3.org/2000/svg" xmlns:xlink="http://www.w3.org/1999/xlink" x="0px" y="0px" viewBox="0 0 512 512" style="enable-background:new 0 0 512 512;" xml:space="preserve"><g><g><path d="M437.02,74.98C388.667,26.629,324.38,0,256,0S123.332,26.629,74.98,74.98C26.629,123.333,0,187.62,0,256 s26.629,132.667,74.98,181.02C123.332,485.371,187.62,512,256,512s132.667-26.629,181.02-74.98 C485.371,388.667,512,324.38,512,256S485.371,123.333,437.02,74.98z M256,482C131.383,482,30,380.617,30,256S131.383,30,256,30 s226,101.383,226,226S380.617,482,256,482z"></path></g></g><g><g><path d="M102.436,259v15c0,84.676,68.889,153.565,153.564,153.565c84.676,0,153.565-68.889,153.565-153.565v-15H102.436z M256,397.565c-63.056,0-115.232-47.481-122.659-108.565h245.318C371.232,350.084,319.056,397.565,256,397.565z"></path></g></g><g><g><path d="M173.705,121.226c-25.716,0-46.637,20.921-46.637,46.637s20.921,46.637,46.637,46.637s46.637-20.921,46.637-46.637 C220.342,142.147,199.421,121.226,173.705,121.226z M173.705,184.501c-9.173,0-16.637-7.463-16.637-16.637 c0-9.174,7.464-16.637,16.637-16.637c9.173,0,16.637,7.463,16.637,16.637C190.342,177.038,182.879,184.501,173.705,184.501z"></path></g></g><g><g><path d="M338.295,121.226c-25.716,0-46.637,20.921-46.637,46.637s20.921,46.637,46.637,46.637s46.637-20.921,46.637-46.637 C384.932,142.147,364.011,121.226,338.295,121.226z M338.295,184.501c-9.174,0-16.637-7.463-16.637-16.637 c0-9.174,7.463-16.637,16.637-16.637s16.637,7.463,16.637,16.637C354.932,177.038,347.469,184.501,338.295,184.501z"></path></g></g></svg>