<?xml version="1.0" encoding="utf-8" ?><!-- created by svgstack.com | Attribution is required. --><svg xmlns="http://www.w3.org/2000/svg" xmlns:xlink="http://www.w3.org/1999/xlink" width="1024" height="1024"><path fill="#201E1F" transform="scale(2 2)" d="M217.134 70.5322C219.609 70.3405 222.163 70.51 224.648 70.5181L282.254 70.5325C304.071 70.5478 311.251 72.9894 311.247 96.5951L311.23 108.848L350.836 108.858C368.533 108.842 392.478 106.121 393.476 132.166C394.04 146.879 396.202 169.068 375.768 169.755C374.776 177.183 374.291 184.771 373.508 192.231L351.86 387.667C351.054 394.836 350.74 405.379 349.168 412.055C344.417 432.227 328.549 436.332 310.998 436.327L295.562 436.31L201.976 436.322C185.151 436.336 169.246 433.692 163.794 414.089C161.83 407.028 161.681 399.338 160.78 392.077C158.363 372.603 156.333 353.057 154.288 333.54L136.492 169.755C121.565 170.182 118.051 160.684 118.08 147.606L118.052 137.647C118.006 107.437 138.467 108.839 161.968 108.838L200.776 108.848L200.812 97.3574C200.771 84.8215 201.727 72.5086 217.134 70.5322ZM149.324 169.755C151.149 188.447 153.406 207.082 155.427 225.752L174.484 400.012C177.895 427.732 187.928 423.867 212.289 423.859L297.814 423.859C309.573 423.858 325.187 426.914 333.569 416.497C337.562 411.534 337.422 404.818 337.902 398.766L356.112 234.782C358.448 213.109 361.421 191.467 363.336 169.755L149.324 169.755ZM140.749 121.765C135.398 122.965 131.715 126.401 130.904 131.861C130.372 135.439 129.632 153.97 132.041 156.501C135.974 157.78 151.37 157.126 156.554 157.126L369.437 157.12C375.866 157.33 380.562 157.366 380.594 149.663C380.689 127.017 385.233 121.77 359.488 121.763L187.992 121.768C172.273 121.769 156.454 121.364 140.749 121.765ZM219.58 83.1151C212.237 83.4819 213.266 89.9112 213.308 95.5542C213.341 99.9844 213.434 104.419 213.353 108.848L292.304 108.848L298.62 108.848C298.625 104.846 298.607 100.841 298.66 96.8388C298.879 80.4456 296.086 83.0152 281.608 83.0951L234.17 83.1066C229.331 83.1036 224.409 82.8966 219.58 83.1151Z"/><path fill="#201E1F" transform="scale(2 2)" d="M254.682 222.763C264.986 222.366 262.27 234.965 262.264 241.647L262.245 334.839C262.245 345.659 262.554 356.577 262.243 367.387C262.145 370.798 260.473 373.209 257.065 373.979C246.073 374.792 249.771 353.937 249.771 346.376L249.763 257.433C249.757 248.819 249.525 240.132 249.802 231.524C249.952 226.88 250.178 224.777 254.682 222.763Z"/><path fill="#201E1F" transform="scale(2 2)" d="M318.631 222.763C328.959 222.176 324.277 238.247 323.713 243.679L312.536 353.859C311.843 360.463 313.669 372.39 305.359 373.979C295.772 373.736 299.147 362.039 299.722 356.137L309.885 255.583C310.811 247.08 309.461 224.214 318.631 222.763Z"/><path fill="#201E1F" transform="scale(2 2)" d="M192.078 222.763C199.857 222.475 199.481 230.626 200.101 236.123L211.19 346.094C212.016 353.621 217.782 372.192 208.391 373.979C199.411 375.966 200.312 363.956 199.708 358.347L189.141 252.505C188.319 243.965 182.261 225.553 192.078 222.763Z"/></svg> 